<svg width="122" height="122" viewBox="0 0 122 122" fill="none" xmlns="http://www.w3.org/2000/svg">
<g clip-path="url(#clip0_31_864)">
<path d="M106.913 18.9525C106.61 18.2419 106.184 17.5896 105.655 17.0246L91.7821 2.19449C91.1774 1.55451 90.4553 1.03457 89.6564 0.664702L89.5726 0.624979H89.5717C88.6563 0.214503 87.6641 0.00176267 86.6603 0H22.3727C18.5716 0 15.4766 2.96603 15.4766 6.62944V114.977C15.4766 118.64 18.5714 121.606 22.3727 121.606H100.527C104.328 121.606 107.423 118.64 107.423 114.977V21.4517C107.423 20.5928 107.25 19.7436 106.913 18.9525ZM102.798 18.3072L91.9772 19.3701V19.371C90.7404 19.491 89.516 19.0355 88.6597 18.1351C87.9218 17.3706 87.5766 16.3096 87.7258 15.2574L89.9697 4.60978L102.798 18.3072ZM104.457 114.978C104.457 116.998 102.695 118.642 100.527 118.642H22.3725C20.2045 118.642 18.4425 116.998 18.4425 114.978V6.6307C18.4425 4.61098 20.2044 2.96729 22.3725 2.96729H86.6602C86.8676 2.96817 87.0751 2.98583 87.2808 3.01937L84.8241 14.6857C84.8162 14.7131 84.8109 14.7414 84.8064 14.7696C84.5134 16.7302 85.1401 18.7173 86.5048 20.1552C87.8307 21.5685 89.6871 22.3639 91.6256 22.3506C91.8357 22.3506 92.0432 22.3506 92.2559 22.3259L104.451 21.1271C104.461 21.2357 104.466 21.3443 104.466 21.4537L104.457 114.978Z" fill="#2A7542"/>
<path d="M25.7174 18.1521H71.7999C72.619 18.1521 73.2829 17.4882 73.2829 16.669C73.2829 15.8499 72.619 15.186 71.7999 15.186H25.7174C24.8982 15.186 24.2344 15.8499 24.2344 16.669C24.2344 17.4882 24.8982 18.1521 25.7174 18.1521Z" fill="#2A7542"/>
<path d="M25.7174 30.1193H71.7999C72.619 30.1193 73.2829 29.4555 73.2829 28.6363C73.2829 27.8171 72.619 27.1533 71.7999 27.1533H25.7174C24.8982 27.1533 24.2344 27.8171 24.2344 28.6363C24.2344 29.4555 24.8982 30.1193 25.7174 30.1193Z" fill="#2A7542"/>
<path d="M97.7201 39.125H25.7174C24.8982 39.125 24.2344 39.7888 24.2344 40.608C24.2344 41.4272 24.8982 42.091 25.7174 42.091H97.7201C98.5393 42.091 99.2031 41.4272 99.2031 40.608C99.2031 39.7888 98.5393 39.125 97.7201 39.125Z" fill="#2A7542"/>
<path d="M97.7201 51.0928H25.7174C24.8982 51.0928 24.2344 51.7566 24.2344 52.5758C24.2344 53.395 24.8982 54.0588 25.7174 54.0588H97.7201C98.5393 54.0588 99.2031 53.395 99.2031 52.5758C99.2031 51.7566 98.5393 51.0928 97.7201 51.0928Z" fill="#2A7542"/>
<path d="M97.7201 63.0591H25.7174C24.8982 63.0591 24.2344 63.7238 24.2344 64.5421C24.2344 65.3613 24.8982 66.0251 25.7174 66.0251H97.7201C98.5393 66.0251 99.2031 65.3613 99.2031 64.5421C99.2031 63.7238 98.5393 63.0591 97.7201 63.0591Z" fill="#2A7542"/>
<path d="M97.7201 75.0312H25.7174C24.8982 75.0312 24.2344 75.6951 24.2344 76.5143C24.2344 77.3335 24.8982 77.9973 25.7174 77.9973H97.7201C98.5393 77.9973 99.2031 77.3335 99.2031 76.5143C99.2031 75.6951 98.5393 75.0312 97.7201 75.0312Z" fill="#2A7542"/>
<path d="M97.7201 86.8931H25.7174C24.8982 86.8931 24.2344 87.5569 24.2344 88.3761C24.2344 89.1953 24.8982 89.8591 25.7174 89.8591H97.7201C98.5393 89.8591 99.2031 89.1953 99.2031 88.3761C99.2031 87.5569 98.5393 86.8931 97.7201 86.8931Z" fill="#2A7542"/>
<path d="M48.9425 105.636C47.9397 106.227 46.7939 106.531 45.6305 106.514C44.6833 106.5 43.752 106.264 42.9117 105.827C42.5807 105.651 42.2744 105.432 42.0025 105.175C41.532 104.68 40.8893 104.387 40.2079 104.356C38.7646 104.312 37.9657 105.375 37.3831 106.151H37.3822C37.0061 106.72 36.5268 107.212 35.9689 107.604C34.8249 108.326 33.0576 108.479 31.9453 107.95H31.9444C31.5436 107.751 31.1906 107.465 30.9116 107.115C32.1298 106.942 33.2835 106.458 34.2607 105.711C35.1823 104.977 35.9238 104.042 36.4287 102.977C37.0766 101.57 37.0714 100.23 36.4093 99.2047C35.8505 98.3423 34.8424 97.7491 33.5669 97.5363C31.864 97.2547 29.99 97.6846 28.7939 98.631C27.4592 99.6867 26.7274 101.52 26.7618 103.651L26.6656 103.611V103.612C26.3001 103.426 25.8738 103.399 25.4871 103.538C25.1014 103.678 24.7906 103.971 24.6282 104.348C24.4667 104.725 24.4675 105.152 24.6317 105.527C24.7968 105.903 25.1093 106.194 25.4959 106.331C26.1183 106.598 26.7636 106.808 27.4238 106.959C28.0965 108.625 29.2432 109.947 30.6672 110.624V110.625C31.5622 111.031 32.5359 111.236 33.5193 111.225C34.9378 111.232 36.3301 110.845 37.5411 110.106C38.4071 109.525 39.1556 108.785 39.7453 107.925C39.8566 107.777 39.9925 107.597 40.1064 107.459C40.5283 107.839 40.9962 108.166 41.4976 108.432C42.7555 109.095 44.152 109.451 45.5741 109.47C47.2831 109.499 48.9674 109.056 50.4406 108.19C50.8096 108.008 51.0859 107.683 51.206 107.29C51.3251 106.896 51.2757 106.472 51.07 106.116C50.8643 105.76 50.5201 105.506 50.1193 105.414C49.7186 105.321 49.2984 105.4 48.9576 105.629L48.9425 105.636ZM29.7649 104.252V104.228C29.6016 102.787 29.9406 101.509 30.63 100.958C31.1826 100.587 31.8376 100.398 32.5032 100.418C32.6965 100.418 32.889 100.433 33.0796 100.463C33.6384 100.557 33.8706 100.748 33.9147 100.815C34.063 101.047 33.6675 102.402 32.4317 103.376V103.375C31.6593 103.945 30.7245 104.253 29.7649 104.252Z" fill="#2A7542"/>
</g>
<defs>
<clipPath id="clip0_31_864">
<rect width="121.606" height="121.606" fill="white"/>
</clipPath>
</defs>
</svg>
