<svg width="122" height="122" viewBox="0 0 122 122" fill="none" xmlns="http://www.w3.org/2000/svg">
<path d="M52.7422 53.03C52.7422 53.7655 53.3394 54.3626 54.0749 54.3626H65.7523C66.4906 54.3626 67.085 53.7655 67.085 53.03C67.085 52.2944 66.4905 51.6973 65.7523 51.6973H54.0749C53.3393 51.6973 52.7422 52.2944 52.7422 53.03Z" fill="#2A7542"/>
<path d="M1.33213 121.612H92.2986C95.1943 121.612 97.7776 120.315 99.5637 118.301C99.6199 118.253 99.6833 118.229 99.7315 118.171L116.994 97.8427C117.005 97.832 117.005 97.8159 117.015 97.8052C117.037 97.7784 117.048 97.7517 117.064 97.7222C117.205 97.5196 117.277 97.2902 117.288 97.0554C117.293 97.0233 117.315 97.0072 117.315 96.9831L117.314 53.0309C117.314 52.2954 116.719 51.6982 115.981 51.6982H108.3C107.567 51.6982 106.967 52.2954 106.967 53.0309C106.967 53.7664 107.567 54.3636 108.3 54.3636H114.647V95.9621L94.3917 101.497C93.9061 101.628 93.5116 101.94 93.267 102.367C93.0108 102.804 92.9501 103.31 93.0858 103.799C93.2616 104.423 93.7365 104.902 94.3471 105.084C97.3623 105.99 99.3885 108.713 99.3885 111.863C99.3885 115.769 96.2133 118.939 92.3073 118.939L2.66629 118.938V54.3576C3.33576 54.2879 3.85794 53.7202 3.85794 53.0329C3.85794 52.2974 3.26076 51.7002 2.52525 51.7002H1.33269C0.59715 51.7002 0 52.2974 0 53.0329V120.28C0 121.015 0.594499 121.612 1.33269 121.612L1.33213 121.612ZM97.2664 103.478L112.169 99.4067L102.009 111.366C101.844 108.042 100.058 105.112 97.2664 103.478Z" fill="#2A7542"/>
<path d="M9.2435 56.4211C9.2435 56.4559 9.22744 56.4853 9.23011 56.5201C9.23279 56.5576 9.25154 56.5871 9.2569 56.621C9.53449 60.8601 10.6298 65.0456 12.5178 68.9214C12.5231 68.9375 12.5205 68.9535 12.5285 68.9696C12.5365 68.9803 12.5499 68.9857 12.5579 69.0017C14.403 72.7768 16.997 76.2561 20.3372 79.2071C20.4595 79.316 20.6041 79.3937 20.7505 79.4526C20.9049 79.5088 21.0594 79.541 21.22 79.541C21.2495 79.541 21.2763 79.541 21.303 79.5356C21.3994 79.5303 21.4842 79.4874 21.578 79.4633C21.6449 79.4472 21.7163 79.4419 21.7806 79.4097C21.9484 79.3321 22.0975 79.2285 22.2207 79.0875L39.2967 59.7219H39.2994L47.0277 50.9589H47.0304C47.0304 50.9562 47.0304 50.9562 47.0331 50.9536L57.6036 38.9674C57.6063 38.9647 57.609 38.9647 57.6117 38.962C57.6144 38.9593 57.6144 38.9567 57.617 38.954L61.7892 34.2222C61.7999 34.2141 61.808 34.2034 61.816 34.1927L64.1064 31.5961C64.3626 31.3051 64.4715 30.932 64.4286 30.5749V30.5696L64.4268 30.566C64.3894 30.2491 64.2456 29.9447 63.9841 29.718C60.6492 26.7777 56.8796 24.6471 52.9172 23.2849C52.8931 23.2769 52.8771 23.2555 52.8556 23.2474C52.8396 23.2421 52.8235 23.2474 52.8074 23.2421C48.7255 21.8558 44.4391 21.2962 40.1999 21.5461C40.1624 21.5461 40.133 21.53 40.0937 21.5327C40.0562 21.5354 40.0294 21.5541 39.9946 21.5595C35.7502 21.8371 31.5645 22.9323 27.6862 24.8204C27.6755 24.8257 27.6621 24.823 27.6514 24.8284C27.6353 24.8364 27.6246 24.8525 27.6086 24.8605C23.839 26.7083 20.3569 29.2969 17.4139 32.637C14.4709 35.972 12.3402 39.7468 10.9781 43.7172C10.97 43.7359 10.954 43.7493 10.9459 43.7707C10.9406 43.7841 10.9459 43.7975 10.9406 43.8109C9.54987 47.8848 8.98732 52.1764 9.2435 56.4211ZM26.7773 40.8867C33.9595 32.7451 46.2071 31.6918 54.6787 38.2392L45.8193 48.2821C44.5875 47.5493 43.1665 47.194 41.7088 47.2877C39.795 47.4073 38.0428 48.266 36.7743 49.7031C35.505 51.1402 34.8739 52.9852 34.9935 54.899C35.0845 56.3602 35.6121 57.725 36.494 58.8525L27.6373 68.8954C20.0804 61.3134 19.5893 49.0336 26.7768 40.8866L26.7773 40.8867ZM38.3181 56.789C37.9397 56.173 37.6995 55.4777 37.6513 54.7359C37.5763 53.5335 37.9736 52.374 38.7707 51.467C39.5678 50.5637 40.6693 50.0219 41.8707 49.9478C42.6116 49.9103 43.3319 50.062 43.9898 50.353L38.3181 56.789ZM27.6441 27.8524L28.5554 29.7135C28.7875 30.1857 29.2615 30.4597 29.7525 30.4597C29.9497 30.4597 30.1497 30.4169 30.3389 30.324C31.0003 29.9991 31.2744 29.202 30.9495 28.5406L30.0301 26.6634C32.8748 25.4289 35.8768 24.6425 38.9286 24.3175L39.0589 26.3946C39.1044 27.1007 39.6882 27.6425 40.3889 27.6425C40.4157 27.6425 40.4452 27.6425 40.4719 27.6398C41.2075 27.5916 41.7654 26.9596 41.7198 26.2241L41.5895 24.1675C41.7814 24.1648 41.976 24.138 42.1706 24.138C45.0421 24.138 47.9157 24.5701 50.7042 25.3832L50.0329 27.3408C49.7928 28.037 50.166 28.794 50.8622 29.0341C51.0059 29.0823 51.1505 29.1064 51.2942 29.1064C51.8486 29.1064 52.3663 28.7601 52.5555 28.2057L53.2277 26.2464C56.0429 27.347 58.7353 28.8592 61.1934 30.848L56.4401 36.2414C46.864 28.7263 32.9352 29.8805 24.775 39.1263C16.6199 48.3749 17.2172 62.3387 25.8712 70.9011L22.5015 74.7241L21.5152 75.8434L21.1153 76.2969C18.8382 74.1055 16.9886 71.6204 15.5462 68.971L17.4154 68.0543C18.0768 67.7293 18.3509 66.9322 18.0259 66.2708C17.701 65.6094 16.8959 65.3353 16.2425 65.6602L14.3679 66.5796C13.1308 63.7349 12.3685 60.7329 12.0435 57.6827L14.0939 57.5551C14.8267 57.5069 15.3873 56.8749 15.3418 56.142C15.2936 55.4092 14.7152 54.862 13.9287 54.8941L11.873 55.0218C11.8168 51.9583 12.2247 48.8876 13.0941 45.9126L15.0454 46.5794C15.19 46.6195 15.3338 46.6436 15.4784 46.6436C16.0327 46.6436 16.5504 46.2973 16.7396 45.743C16.9798 45.0441 16.6066 44.2871 15.9104 44.0497L13.9564 43.3802C15.0552 40.5702 16.5932 37.8906 18.5767 35.4332L20.1228 36.798C20.3789 37.0221 20.6905 37.131 21.0082 37.131C21.3787 37.131 21.7438 36.9792 22.008 36.6802C22.4962 36.1285 22.4427 35.2859 21.891 34.7976L20.3504 33.4382C22.5346 31.1646 24.9956 29.2936 27.6431 27.8512L27.6441 27.8524Z" fill="#2A7542"/>
<path d="M112.574 20.0527L81.9986 55.3694C81.513 55.9237 81.5773 56.7663 82.1343 57.2492C82.3905 57.4679 82.6966 57.5742 83.0037 57.5742C83.3795 57.5742 83.7473 57.4171 84.0142 57.1127L114.596 21.796C115.076 21.2417 115.012 20.399 114.455 19.9161C113.897 19.4341 113.061 19.493 112.575 20.0527L112.574 20.0527Z" fill="#2A7542"/>
<path d="M110.509 13.2946C107.75 13.4918 105.232 14.7531 103.428 16.8427L72.8502 52.1594C72.8448 52.162 72.8448 52.1701 72.8395 52.1754C72.8234 52.1942 72.8181 52.2183 72.802 52.237C72.6824 52.3941 72.6101 52.5673 72.5672 52.7485C72.5619 52.7753 72.5405 52.7913 72.5351 52.8181L69.8135 69.7388C69.7412 70.1976 69.9073 70.6555 70.2563 70.9572C70.5017 71.1706 70.8133 71.2849 71.1257 71.2849C71.2614 71.2849 71.3979 71.2634 71.5256 71.2233L87.8812 66.1103C87.9026 66.1049 87.9187 66.0835 87.9374 66.0728C88.1079 66.0112 88.265 65.9103 88.4016 65.7764C88.4283 65.755 88.4578 65.7416 88.4792 65.7202C88.4846 65.7148 88.4899 65.7148 88.4953 65.7095L119.077 30.3928C120.885 28.3023 121.776 25.6343 121.577 22.8777C121.38 20.1186 120.119 17.6041 118.032 15.7938C115.943 13.9844 113.295 13.0919 110.51 13.2943L110.509 13.2946ZM72.7858 68.0371L74.7906 55.6056L84.804 64.2783L72.7858 68.0371ZM117.062 28.6461L87.3489 62.955L75.7331 52.8959L105.444 18.5846C106.788 17.0332 108.652 16.0968 110.705 15.9506C112.742 15.7908 114.736 16.4594 116.287 17.8063C117.839 19.1498 118.772 21.019 118.921 23.064C119.061 25.1117 118.402 27.0952 117.061 28.6465L117.062 28.6461Z" fill="#2A7542"/>
<path d="M62.8947 105.538C71.0954 105.538 77.7714 98.8677 77.7714 90.6671C77.7714 82.4665 71.0954 75.7959 62.8947 75.7959C60.5516 75.7959 58.3414 76.3529 56.3634 77.3259L55.9635 64.8836C55.9474 64.4061 55.6805 63.9803 55.2601 63.7535C54.8388 63.5295 54.33 63.5455 53.9274 63.7964L31.2082 77.9071C30.8029 78.1579 30.5628 78.606 30.5789 79.0826C30.595 79.5602 30.8618 79.9886 31.2823 80.2181L48.102 89.2158C48.0538 89.6906 48.0297 90.1727 48.0297 90.6636C48.0234 98.8686 54.6913 105.538 62.8947 105.538ZM62.8947 78.4641C69.626 78.4641 75.1051 83.9376 75.1051 90.6689C75.1051 97.4002 69.626 102.874 62.8947 102.874C56.1687 102.874 50.6898 97.3947 50.6898 90.6689C50.6898 90.6529 50.6952 90.6314 50.6952 90.6127L54.8619 92.8416C55.0592 92.9505 55.2752 93.004 55.4912 93.004C55.7367 93.004 55.9822 92.9371 56.1946 92.8014C56.5998 92.5506 56.84 92.1025 56.8239 91.6258L56.4588 80.343C58.3351 79.1648 60.5266 78.4641 62.8947 78.4641ZM54.0862 89.4023L51.0683 87.7893C51.5565 85.7952 52.5322 84.009 53.8648 82.5344L54.0862 89.4023ZM34.5733 78.9567L53.3737 67.282L53.7522 78.962C51.3393 80.8526 49.5211 83.4644 48.6365 86.4796L34.5733 78.9567Z" fill="#2A7542"/>
</svg>
