<svg width="122" height="122" viewBox="0 0 122 122" fill="none" xmlns="http://www.w3.org/2000/svg">
<g clip-path="url(#clip0_31_825)">
<path d="M57.3715 68.8818C57.3715 67.8257 56.9533 66.8129 56.2077 66.0647C55.4621 65.3174 54.4502 64.895 53.3941 64.8916H28.0594H28.0603C27.0042 64.895 25.9923 65.3174 25.2467 66.0647C24.5011 66.8128 24.082 67.8256 24.082 68.8818V95.3695C24.082 95.7054 24.2161 96.0278 24.4535 96.2653C24.691 96.5028 25.0134 96.6359 25.3493 96.6359H56.104C56.4399 96.6359 56.7622 96.5028 56.9998 96.2653C57.2373 96.0278 57.3704 95.7054 57.3704 95.3695L57.3715 68.8818ZM26.5646 74.0119H39.435V82.8029H26.5646V74.0119ZM41.9679 74.0119H54.8382V82.8029H41.9679V74.0119ZM26.5646 68.8818C26.5612 68.4967 26.7122 68.126 26.9837 67.8529C27.2543 67.5789 27.6241 67.4253 28.0092 67.4253H53.3439H53.3431C53.729 67.4253 54.098 67.5789 54.3694 67.8529C54.64 68.126 54.791 68.4967 54.7876 68.8818V71.4782L26.5648 71.4791L26.5646 68.8818ZM26.5646 85.3486L39.435 85.3494V94.115H26.5646V85.3486ZM41.9679 94.1023V85.3366H54.8382V94.1023H41.9679Z" fill="#2A7542" stroke="#2A7542" stroke-width="0.737009"/>
<path d="M72.4446 90.5425C71.4369 90.5425 70.4699 90.9429 69.7574 91.6554C69.0449 92.3687 68.6445 93.3349 68.6445 94.3426C68.6445 95.3511 69.0449 96.3173 69.7574 97.0298C70.4699 97.7423 71.4369 98.1427 72.4446 98.1427C73.4523 98.1427 74.4193 97.7423 75.1318 97.0298C75.8443 96.3173 76.2447 95.3511 76.2447 94.3426C76.2447 93.3349 75.8443 92.3687 75.1318 91.6554C74.4193 90.9429 73.4523 90.5425 72.4446 90.5425ZM72.4446 95.609V95.6098C71.9323 95.6098 71.47 95.3011 71.2741 94.8278C71.0781 94.3544 71.1867 93.809 71.5489 93.4468C71.9111 93.0846 72.4557 92.9769 72.929 93.1728C73.4023 93.3688 73.7111 93.8302 73.7111 94.3426C73.7212 94.6852 73.5923 95.0178 73.354 95.2629C73.1156 95.5089 72.7873 95.648 72.4447 95.6471L72.4446 95.609Z" fill="#2A7542" stroke="#2A7542" stroke-width="0.737009"/>
<path d="M45.7675 100.41H35.6336H35.6344C34.9346 100.41 34.3672 100.977 34.3672 101.677C34.3672 102.376 34.9347 102.943 35.6344 102.943H45.7683H45.7675C46.4673 102.943 47.0347 102.376 47.0347 101.677C47.0347 100.977 46.4673 100.41 45.7675 100.41Z" fill="#2A7542" stroke="#2A7542" stroke-width="0.737009"/>
<path d="M117.438 85.7173C116.441 85.7003 115.491 85.2932 114.791 84.5815C114.092 83.8707 113.701 82.9139 113.701 81.9171C113.701 81.5812 113.567 81.2589 113.33 81.0214C113.092 80.7839 112.771 80.6498 112.434 80.6498H105.949V61.5484L107.963 63.5621C108.89 64.4943 110.151 65.0185 111.465 65.0185C112.78 65.0185 114.041 64.4943 114.968 63.5621L117.248 61.282C118.18 60.3549 118.704 59.0945 118.704 57.7797C118.704 56.4648 118.18 55.2045 117.248 54.2773L64.5025 1.53192C63.5211 0.550515 62.1909 0 60.8034 0C59.4165 0 58.0855 0.550515 57.1051 1.53192L34.8626 23.7744V17.1625C35.8134 17.1659 36.7261 16.791 37.4006 16.1208C38.0758 15.4516 38.4567 14.5406 38.4601 13.5898V9.7015C38.4567 8.75486 38.0792 7.84809 37.4099 7.17888C36.7407 6.50963 35.8339 6.13301 34.8882 6.12962H14.6204C13.6746 6.13301 12.7679 6.50963 12.0987 7.17888C11.4294 7.84813 11.052 8.7549 11.0486 9.7015V13.5906V13.5898C11.052 14.5406 11.4328 15.4516 12.1072 16.1209C12.7824 16.791 13.6951 17.1659 14.6459 17.1625V43.9912L4.3602 54.2769C3.42798 55.204 2.90463 56.4644 2.90463 57.7792C2.90463 59.0941 3.428 60.3544 4.3602 61.2816L6.64025 63.5617C7.57163 64.4913 8.83389 65.0139 10.1494 65.0139C11.465 65.0139 12.7271 64.4914 13.6576 63.5617L14.6458 62.5735V98.9784C13.0113 99.2286 11.475 99.9149 10.1978 100.964C8.92031 102.014 7.94983 103.389 7.38764 104.945C5.67759 104.613 3.9074 105.015 2.50853 106.054C1.10979 107.091 0.210663 108.67 0.0326011 110.402C-0.145528 112.134 0.411764 113.862 1.57045 115.164C2.72828 116.466 4.37991 117.22 6.12123 117.244H96.1575C97.8921 118.859 99.809 120.267 101.87 121.437C102.262 121.663 102.745 121.663 103.137 121.437C107.863 118.748 111.794 114.857 114.53 110.159C117.267 105.461 118.711 100.122 118.717 94.6845V86.9825C118.717 86.6441 118.582 86.32 118.342 86.0825C118.101 85.8442 117.777 85.7127 117.438 85.7161L117.438 85.7173ZM13.5692 13.5915V9.70234C13.5692 9.12894 14.0341 8.66324 14.6075 8.66324H34.8752C35.15 8.66324 35.4147 8.77267 35.6098 8.96775C35.804 9.16285 35.9134 9.42665 35.9134 9.70232V13.5914V13.5906C35.9134 14.1648 35.4486 14.6297 34.8752 14.6297H14.6075C14.0391 14.6229 13.5819 14.1598 13.5819 13.5906L13.5692 13.5915ZM17.1665 17.1633H32.3669V26.309L17.1665 41.5094V17.1633ZM11.8464 61.7765C11.3917 62.2337 10.7742 62.4907 10.1295 62.4907C9.48575 62.4907 8.86737 62.2337 8.41358 61.7765L6.1207 59.5092C5.18256 58.5575 5.18256 57.0281 6.1207 56.0763C23.9812 38.2413 34.3044 27.9057 58.8921 3.31796C59.9601 2.3145 61.6243 2.3145 62.6922 3.31796L115.464 56.0633C116.409 57.0125 116.409 58.5471 115.464 59.4962L113.184 61.7763C112.213 62.6695 110.72 62.6695 109.751 61.7763L61.7044 13.73C61.4669 13.49 61.1429 13.3551 60.8053 13.3551C60.4677 13.3551 60.1437 13.49 59.9062 13.73L11.8464 61.7765ZM2.48532 111.039C2.48277 109.79 3.11811 108.626 4.16991 107.951C5.22086 107.276 6.54421 107.184 7.67903 107.708C8.03274 107.871 8.44159 107.861 8.78768 107.683C9.13377 107.505 9.37891 107.178 9.45185 106.796C9.70463 105.507 10.3323 104.321 11.2569 103.389C12.1806 102.456 13.3597 101.817 14.6455 101.551V114.712H6.12068C5.15285 114.702 4.22828 114.311 3.54791 113.623C2.86678 112.935 2.48508 112.007 2.48508 111.039L2.48532 111.039ZM17.1793 114.712V60.041C35.977 41.2434 41.2459 35.9745 60.8044 16.4159L103.415 59.0139V80.7127H96.5625V68.8816C96.5625 67.8255 96.1435 66.8127 95.3987 66.0645C94.6531 65.3172 93.6411 64.8948 92.5851 64.8914H67.2504C66.1935 64.8948 65.1807 65.3164 64.4325 66.0637C63.6852 66.8118 63.2636 67.8246 63.2602 68.8816V114.711L17.1793 114.712ZM94.0303 71.4804H65.7446V68.8831C65.7446 68.079 66.3969 67.4267 67.2018 67.4267H92.5365H92.5357C92.9301 67.4131 93.3118 67.5607 93.5943 67.8355C93.8767 68.1104 94.0345 68.4895 94.0303 68.8831L94.0303 71.4804ZM65.7446 114.712V74.0124H94.0303V80.7133H92.5612C91.8614 80.7133 91.2948 81.2808 91.2948 81.9798C91.2948 82.9773 90.9029 83.9341 90.2039 84.6448C89.505 85.3555 88.555 85.7636 87.5573 85.7798C86.8584 85.7798 86.2909 86.3472 86.2909 87.047V94.7482C86.2969 102.1 88.9399 109.205 93.7393 114.775L65.7446 114.712ZM116.173 94.6864C116.161 104.583 110.977 113.753 102.505 118.868C94.0223 113.762 88.8318 104.588 88.8251 94.6864V88.1244C90.0219 87.8699 91.1194 87.2736 91.9856 86.4084C92.8509 85.5424 93.4472 84.4448 93.7016 83.2478H111.258C111.513 84.4447 112.109 85.5422 112.974 86.4084C113.84 87.2736 114.938 87.87 116.135 88.1244L116.173 94.6864Z" fill="#2A7542" stroke="#2A7542" stroke-width="0.737009"/>
<path d="M109.598 92.5966L100.072 101.07L95.4482 96.5993L95.4491 96.5984C95.0716 96.232 94.5075 96.1361 94.03 96.3584C93.6508 96.5348 93.3819 96.8868 93.3141 97.2999C93.2453 97.713 93.3853 98.1337 93.6881 98.423C99.7175 104.224 99.3247 104.059 100.022 104.059C100.718 104.059 99.8574 104.617 111.258 94.4837C111.528 94.2657 111.698 93.9467 111.727 93.6007C111.756 93.2537 111.641 92.911 111.409 92.6515C111.178 92.3928 110.85 92.2401 110.503 92.2291C110.156 92.2189 109.819 92.3512 109.573 92.5963L109.598 92.5966Z" fill="#2A7542" stroke="#2A7542" stroke-width="0.737009"/>
</g>
<defs>
<clipPath id="clip0_31_825">
<rect width="121.606" height="121.606" fill="white"/>
</clipPath>
</defs>
</svg>
