<svg width="122" height="122" viewBox="0 0 122 122" fill="none" xmlns="http://www.w3.org/2000/svg">
<g clip-path="url(#clip0_31_877)">
<path d="M97.6522 0H24.4112C19.0773 0 14.7383 4.33898 14.7383 9.67291V111.934C14.7383 117.27 19.0773 121.606 24.4112 121.606H97.6522C102.986 121.606 107.325 117.27 107.325 111.934V9.67291C107.326 4.34182 102.987 0 97.6522 0ZM104.562 111.935C104.562 115.747 101.464 118.845 97.6522 118.845H24.4112C20.5995 118.845 17.5014 115.747 17.5014 111.935V9.67481C17.5014 5.866 20.5995 2.76504 24.4112 2.76504H97.6522C101.464 2.76504 104.562 5.866 104.562 9.67481V111.935Z" fill="#2A7542"/>
<path d="M92.6932 59.4219H46.8113C46.0487 59.4219 45.4297 60.041 45.4297 60.8034C45.4297 61.5659 46.0488 62.185 46.8113 62.185H92.6932C93.4585 62.185 94.0747 61.5659 94.0747 60.8034C94.0747 60.041 93.4584 59.4219 92.6922 59.4219H92.6932Z" fill="#2A7542"/>
<path d="M92.6932 40.8569H46.8113C46.0487 40.8569 45.4297 41.476 45.4297 42.2385C45.4297 43.001 46.0488 43.6201 46.8113 43.6201H92.6932C93.4585 43.6201 94.0747 43.001 94.0747 42.2385C94.0747 41.476 93.4584 40.8569 92.6922 40.8569H92.6932Z" fill="#2A7542"/>
<path d="M92.6932 77.9883H46.8113C46.0487 77.9883 45.4297 78.6101 45.4297 79.3699C45.4297 80.1324 46.0488 80.7514 46.8113 80.7514H92.6932C93.4585 80.7514 94.0747 80.1324 94.0747 79.3699C94.0747 78.6074 93.4584 77.9883 92.6922 77.9883H92.6932Z" fill="#2A7542"/>
<path d="M92.6932 22.2939H46.8113C46.0487 22.2939 45.4297 22.913 45.4297 23.6755C45.4297 24.438 46.0488 25.0571 46.8113 25.0571H92.6932C93.4585 25.0571 94.0747 24.438 94.0747 23.6755C94.0747 22.913 93.4584 22.2939 92.6922 22.2939H92.6932Z" fill="#2A7542"/>
<path d="M92.6932 96.5537H46.8113C46.0487 96.5537 45.4297 97.1756 45.4297 97.9353C45.4297 98.6978 46.0488 99.3169 46.8113 99.3169H92.6932C93.4585 99.3169 94.0747 98.6978 94.0747 97.9353C94.0747 97.1728 93.4584 96.5537 92.6922 96.5537H92.6932Z" fill="#2A7542"/>
<path d="M32.6332 31.0208C36.6846 31.0208 39.9824 27.7265 39.9824 23.6742C39.9824 22.4471 39.6511 21.3052 39.1172 20.2854C41.3001 18.1237 43.6803 16.1646 46.2721 14.4566C46.9079 14.0364 47.0846 13.1795 46.6645 12.541C46.2444 11.9035 45.3875 11.7323 44.7527 12.1496C42.094 13.9051 39.654 15.9196 37.3978 18.1248C36.1124 17.0218 34.4598 16.3287 32.6357 16.3287C30.9025 16.3287 29.3303 16.9589 28.07 17.9647C27.5777 17.503 26.8208 17.4428 26.2766 17.8759C25.6826 18.3543 25.5882 19.2223 26.0666 19.8192L26.2739 20.0764C25.6659 21.1461 25.293 22.3621 25.293 23.6779C25.2865 27.7265 28.5846 31.0208 32.6329 31.0208H32.6332ZM37.2211 23.6742C37.2211 26.2032 35.165 28.2567 32.636 28.2567C30.1098 28.2567 28.0535 26.2005 28.0535 23.6742C28.0535 23.2679 28.1229 22.8783 28.2247 22.5054L31.5607 26.6565C31.8235 26.985 32.2186 27.1738 32.6387 27.1738H32.6832C33.1172 27.1599 33.5206 26.9443 33.7695 26.5908C34.7837 25.151 35.8979 23.8019 37.0527 22.498C37.1461 22.8728 37.2211 23.2624 37.2211 23.6742ZM35.4602 20.0921C34.457 21.1923 33.49 22.3305 32.5831 23.5216L29.819 20.0812C30.5981 19.4676 31.5688 19.0892 32.6349 19.0892C33.7056 19.0919 34.6809 19.4757 35.4602 20.0921Z" fill="#2A7542"/>
<path d="M32.6357 53.457C28.5843 53.457 25.2891 56.7541 25.2891 60.8062C25.2891 64.8602 28.5833 68.1554 32.6357 68.1554C36.687 68.1554 39.9849 64.8612 39.9849 60.8062C39.9849 56.7549 36.6868 53.457 32.6357 53.457ZM32.6357 65.3887C30.1094 65.3887 28.0532 63.3326 28.0532 60.8036C28.0532 58.2747 30.1093 56.2185 32.6357 56.2185C35.1648 56.2185 37.2208 58.2747 37.2208 60.8036C37.2208 63.3326 35.1646 65.3887 32.6357 65.3887Z" fill="#2A7542"/>
<path d="M32.6357 72.0249C28.5843 72.0249 25.2891 75.3192 25.2891 79.3715C25.2891 83.4255 28.5833 86.7207 32.6357 86.7207C36.687 86.7207 39.9849 83.4264 39.9849 79.3715C39.9849 75.3194 36.6868 72.0249 32.6357 72.0249ZM32.6357 83.9531C30.1094 83.9531 28.0532 81.8969 28.0532 79.3706C28.0532 76.8386 30.1093 74.7826 32.6357 74.7826C35.1648 74.7826 37.2208 76.8388 37.2208 79.3706C37.2208 81.8968 35.1646 83.9531 32.6357 83.9531Z" fill="#2A7542"/>
<path d="M32.6357 90.5859C28.5843 90.5859 25.2891 93.883 25.2891 97.9325C25.2891 101.987 28.5862 105.285 32.6357 105.285C36.6842 105.285 39.9849 101.987 39.9849 97.9325C39.9849 93.8859 36.6868 90.5859 32.6357 90.5859ZM32.6357 102.523C30.1094 102.523 28.0532 100.467 28.0532 97.9354C28.0532 95.4091 30.1093 93.3529 32.6357 93.3529C35.1648 93.3529 37.2208 95.4091 37.2208 97.9354C37.2208 100.467 35.1646 102.523 32.6357 102.523Z" fill="#2A7542"/>
<path d="M46.277 33.0223C46.9127 32.6022 47.0894 31.7453 46.6693 31.1095C46.2492 30.4683 45.3923 30.2943 44.7566 30.7172C42.0979 32.4754 39.6579 34.4871 37.4017 36.6924C36.1163 35.5866 34.4637 34.8935 32.6396 34.8935C30.9064 34.8935 29.3314 35.5236 28.0739 36.5323C27.5788 36.0705 26.8247 36.0104 26.2805 36.4435C25.6865 36.9219 25.5921 37.7899 26.0705 38.3867L26.2778 38.644C25.6698 39.7137 25.2969 40.9296 25.2969 42.2427C25.2969 46.294 28.5911 49.5919 32.6435 49.5919C36.6949 49.5919 39.9927 46.2948 39.9927 42.2427C39.9927 41.0156 39.6614 39.8737 39.1275 38.8567C41.3049 36.6923 43.6848 34.7334 46.277 33.0223ZM35.4705 38.6578C34.4646 39.758 33.4976 40.8962 32.5908 42.0899L29.8267 38.6495C30.6059 38.036 31.5766 37.6547 32.6427 37.6547C33.7106 37.6547 34.6859 38.0387 35.4707 38.6578L35.4705 38.6578ZM37.2259 42.2399C37.2259 44.769 35.1698 46.825 32.6408 46.825C30.1146 46.825 28.0583 44.7688 28.0583 42.2399C28.0583 41.8336 28.1277 41.4468 28.2295 41.0711L31.5655 45.2222C31.8283 45.5507 32.2234 45.7395 32.6435 45.7395H32.688C33.122 45.7256 33.5254 45.51 33.7743 45.1565C34.7885 43.7167 35.9027 42.3676 37.0575 41.0609C37.1509 41.4375 37.2259 41.8308 37.2259 42.2399Z" fill="#2A7542"/>
</g>
<defs>
<clipPath id="clip0_31_877">
<rect width="121.606" height="121.606" fill="white"/>
</clipPath>
</defs>
</svg>
