<svg width="122" height="122" viewBox="0 0 122 122" fill="none" xmlns="http://www.w3.org/2000/svg">
<g clip-path="url(#clip0_31_859)">
<path d="M33.7356 29.26C33.4744 28.3448 34.0048 27.3914 34.9192 27.1301C39.2066 25.9066 43.661 25.2872 48.1589 25.2872C52.3956 25.2872 56.602 25.8408 60.6638 26.9302C61.5835 27.1772 62.129 28.1218 61.882 29.0414C61.635 29.9611 60.6887 30.5049 59.7708 30.2597C56.0006 29.2476 52.0935 28.734 48.1589 28.734C43.98 28.734 39.8427 29.3098 35.8637 30.4454C35.7056 30.4907 35.5465 30.512 35.3901 30.512C34.6419 30.5102 33.9524 30.018 33.7356 29.26ZM94.3506 68.3355C93.4016 68.4048 92.6881 69.2286 92.7556 70.1784C92.8338 71.2598 92.8738 72.3599 92.8738 73.4484C92.8738 90.0381 83.7153 105.147 69.2597 112.883L70.3864 109.685C70.7019 108.789 70.2309 107.803 69.3326 107.488C68.436 107.172 67.4506 107.643 67.1352 108.542L64.6357 115.642C64.3202 116.539 64.7912 117.524 65.6895 117.84L72.7883 120.339C72.9784 120.406 73.1704 120.438 73.3605 120.438C74.0714 120.438 74.7369 119.994 74.9857 119.286C75.3012 118.39 74.8302 117.404 73.9319 117.089L70.7802 115.98C86.4129 107.661 96.321 91.3558 96.321 73.4467C96.321 72.2765 96.2784 71.0937 96.1939 69.9288C96.1246 68.9807 95.3036 68.2654 94.3502 68.3356L94.3506 68.3355ZM60.457 116.451C56.4771 117.586 52.3416 118.162 48.1618 118.162C23.5059 118.162 3.44721 98.1027 3.44721 73.4476C3.44721 56.858 12.6058 41.7514 27.0613 34.0127L25.9346 37.2108C25.6192 38.1074 26.0901 39.0928 26.9884 39.4082C27.885 39.7237 28.8704 39.2527 29.1859 38.3544L31.6854 31.2538C32.0008 30.3572 31.5299 29.3718 30.6315 29.0564L23.5327 26.5569C22.6362 26.2414 21.6508 26.7124 21.3353 27.6107C21.0199 28.5073 21.4908 29.4927 22.3891 29.8082L25.5408 30.9171C9.90809 39.2349 0 55.5389 0 73.4456C0 100.001 21.6048 121.606 48.1608 121.606C52.6605 121.606 57.1149 120.987 61.4005 119.764C62.3157 119.502 62.8453 118.55 62.5841 117.634C62.3237 116.718 61.3703 116.187 60.4559 116.448L60.457 116.451ZM66.748 73.4469C66.748 83.6948 58.4097 92.0331 48.1618 92.0331C37.9139 92.0331 29.5756 83.6948 29.5756 73.4469C29.5756 63.1989 37.9139 54.8607 48.1618 54.8607C58.4097 54.8607 66.748 63.1989 66.748 73.4469ZM63.3013 73.4469C63.3013 65.0988 56.5101 58.3064 48.1609 58.3064C39.8117 58.3064 33.0204 65.0977 33.0204 73.4469C33.0204 81.7961 39.8117 88.5873 48.1609 88.5873C56.5108 88.5873 63.3013 81.7968 63.3013 73.4469ZM121.607 16.956V47.4238C121.607 48.0396 121.28 48.6092 120.746 48.9166L94.3594 64.1522C94.0929 64.3059 93.7952 64.3832 93.4984 64.3832C93.2007 64.3832 92.904 64.3059 92.6374 64.1522L81.485 57.7126C80.6613 57.2363 80.3787 56.1825 80.855 55.3587C81.3313 54.5349 82.3851 54.2524 83.2089 54.7287L91.7765 59.6754V33.186L85.6995 29.6779V39.3883C85.6995 40.0041 85.3717 40.5737 84.8385 40.8811C84.5719 41.0348 84.2742 41.1121 83.9775 41.1121C83.6798 41.1121 83.383 41.0348 83.1164 40.8811L75.7758 36.6426C75.2427 36.3351 74.9148 35.7656 74.9148 35.1498V23.4499L68.8378 19.9418L68.8361 38.7503C68.8361 39.7019 68.0648 40.4741 67.1122 40.4741C66.1606 40.4741 65.3884 39.7028 65.3884 38.7503V16.9562C65.3884 16.3404 65.7163 15.7708 66.2495 15.4634L92.6364 0.23059C93.1696 -0.0768635 93.8271 -0.0768635 94.3603 0.23059L120.747 15.4652C121.28 15.7727 121.608 16.3422 121.608 16.9562L121.607 16.956ZM83.9742 24.7026L106.915 11.4584L103.022 9.21029L80.0814 22.4554L83.9742 24.7026ZM70.5568 16.956L76.6329 20.4641L99.5737 7.21984L93.4976 3.71174L70.5568 16.956ZM82.2513 27.6873L78.3585 25.4392V34.1542L82.2513 36.4023V27.6873ZM93.4971 30.2002L116.438 16.956L110.362 13.4479L87.4211 26.693L93.4971 30.2002ZM118.162 46.43V19.9407L95.2214 33.1849V59.6742L118.162 46.43ZM76.6754 55.5911C74.574 57.6925 74.6237 60.3708 75.371 62.1753C76.1183 63.98 77.9772 65.9091 80.9494 65.9091C83.1708 65.9091 84.9781 67.7164 84.9781 69.9379V76.9559C84.9781 79.1773 83.1708 80.9847 80.9494 80.9847C77.9772 80.9847 76.1192 82.9129 75.371 84.7184C74.6237 86.5231 74.574 89.2004 76.6754 91.3027C77.4361 92.0633 77.8555 93.0754 77.8555 94.1513C77.8555 95.2274 77.436 96.2404 76.6754 97L71.7129 101.963C70.9522 102.723 69.9401 103.143 68.8642 103.143C67.7882 103.143 66.7769 102.723 66.0155 101.963C63.9141 99.8611 61.2359 99.91 59.4313 100.658C57.6266 101.405 55.6975 103.264 55.6975 106.236C55.6975 108.458 53.8902 110.265 51.6688 110.265H44.6507C42.4293 110.265 40.6219 108.458 40.6219 106.236C40.6219 103.259 38.6955 101.4 36.8909 100.653C35.088 99.9054 32.4099 99.8574 30.3039 101.962C29.5424 102.723 28.5312 103.142 27.4553 103.142C26.3792 103.142 25.3662 102.723 24.6066 101.962L19.644 96.9999C18.0731 95.4289 18.0731 92.8733 19.644 91.3023C21.7455 89.2008 21.6966 86.5226 20.9485 84.7181C20.2012 82.9134 18.3423 80.9852 15.3701 80.9852C13.1487 80.9852 11.3413 79.1779 11.3413 76.9564V69.9384C11.3413 67.717 13.1487 65.9096 15.3701 65.9096C18.3423 65.9096 20.2003 63.9814 20.9485 62.1768C21.6958 60.3721 21.7455 57.6948 19.644 55.5916C18.0731 54.0215 18.0731 51.465 19.644 49.895L24.6066 44.9306C25.3672 44.17 26.3793 43.7506 27.4553 43.7506C28.5313 43.7506 29.5425 44.17 30.3039 44.9306C32.4054 47.0321 35.0836 46.9832 36.8882 46.235C38.6929 45.4877 40.6219 43.6288 40.6219 40.6567C40.6219 38.4352 42.4293 36.6279 44.6507 36.6279H51.6688C53.8902 36.6279 55.6975 38.4352 55.6975 40.6567C55.6975 43.6288 57.6258 45.4869 59.4304 46.235C61.2351 46.9832 63.9123 47.0321 66.0155 44.9306C66.7762 44.17 67.7882 43.7506 68.8642 43.7506C69.9401 43.7506 70.9532 44.17 71.7129 44.9306L76.6754 49.8932C77.4361 50.6547 77.8555 51.6659 77.8555 52.7418C77.8563 53.8179 77.437 54.8291 76.6754 55.5905V55.5911ZM72.188 63.494C70.6899 59.8792 71.4772 55.917 74.2398 53.1528C74.3881 53.0044 74.4113 52.832 74.4113 52.7414C74.4113 52.6507 74.389 52.4784 74.2398 52.33L69.2772 47.3674C69.1288 47.219 68.9564 47.1959 68.8658 47.1959C68.7751 47.1959 68.6028 47.2181 68.4544 47.3674C65.6917 50.1301 61.7298 50.9171 58.1132 49.4191C54.4984 47.921 52.2521 44.5639 52.2521 40.6577C52.2521 40.3369 51.9908 40.0748 51.6692 40.0748H44.6511C44.3304 40.0748 44.0682 40.336 44.0682 40.6577C44.0682 44.5657 41.8228 47.9228 38.2071 49.4191C34.5914 50.9172 30.6302 50.1299 27.8659 47.3674C27.7175 47.219 27.5452 47.1959 27.4545 47.1959C27.3639 47.1959 27.1915 47.2181 27.0431 47.3656L22.0805 52.33C21.854 52.5566 21.854 52.9262 22.0805 53.1528C24.8432 55.9155 25.6303 59.8774 24.1322 63.494C22.6341 67.1088 19.277 69.3551 15.3709 69.3551C15.0501 69.3551 14.788 69.6163 14.788 69.938V76.956C14.788 77.2768 15.0492 77.5389 15.3709 77.5389C19.2789 77.5389 22.6359 79.7844 24.1322 83.4C25.6304 87.0157 24.8431 90.9777 22.0805 93.7412C21.854 93.9678 21.854 94.3375 22.0805 94.5649L27.0431 99.5275C27.1915 99.6759 27.3639 99.699 27.4545 99.699C27.5452 99.699 27.7184 99.6768 27.8659 99.5275C29.7053 97.6882 32.0733 96.7241 34.5168 96.7241C35.7484 96.7241 36.9986 96.9694 38.2096 97.4714C41.8226 98.9678 44.068 102.328 44.068 106.24C44.068 106.561 44.3292 106.823 44.6509 106.823H51.6689C51.9897 106.823 52.2518 106.562 52.2518 106.24C52.2518 102.332 54.4973 98.9748 58.1129 97.4785C61.7286 95.9804 65.6906 96.7676 68.4541 99.5302C68.6025 99.6786 68.7767 99.7017 68.8655 99.7017C68.9562 99.7017 69.1285 99.6795 69.277 99.532L74.2395 94.5676C74.3879 94.4192 74.411 94.2468 74.411 94.1562C74.411 94.0655 74.3888 93.8932 74.2413 93.7448C71.4786 90.9821 70.6916 87.0202 72.1896 83.4035C73.6877 79.7878 77.0448 77.5425 80.951 77.5425C81.2718 77.5425 81.5339 77.2812 81.5339 76.9595V69.9415C81.5339 69.6207 81.2727 69.3586 80.951 69.3586C77.043 69.356 73.6844 67.1086 72.188 63.494Z" fill="#2A7542"/>
</g>
<defs>
<clipPath id="clip0_31_859">
<rect width="121.606" height="121.606" fill="white"/>
</clipPath>
</defs>
</svg>
