<svg width="122" height="122" viewBox="0 0 122 122" fill="none" xmlns="http://www.w3.org/2000/svg">
<g clip-path="url(#clip0_31_843)">
<path d="M107.306 91.9686C106.336 91.9686 105.549 92.755 105.549 93.7254V118.107H60.5053V69.0589C60.5053 68.0885 59.719 67.3022 58.7486 67.3022H30.7792C29.8088 67.3022 29.0225 68.0885 29.0225 69.0589V118.094H19.0113V71.7863C19.0113 70.8159 18.2249 70.0296 17.2545 70.0296L5.48743 70.0305L31.8976 38.1784C32.5118 37.4294 32.4134 36.3232 31.6644 35.7091C30.9154 35.0823 29.8092 35.1934 29.1951 35.9424L0.402737 70.6674C-0.027336 71.1959 -0.125727 71.9203 0.169471 72.5344C0.46467 73.1486 1.0788 73.5413 1.75402 73.5413H15.5118V119.849C15.5118 120.82 16.2981 121.606 17.2685 121.606H107.305C108.275 121.606 109.061 120.82 109.061 119.849V93.7236C109.061 92.7532 108.275 91.9668 107.305 91.9668L107.306 91.9686ZM32.5359 118.094V70.8027H57.0048V118.094H32.5359Z" fill="#2A7542"/>
<path d="M120.709 74.7965L80.468 26.2649C81.021 25.6262 81.0821 24.6804 80.529 24.0052L74.6948 16.9664C85.6517 10.5662 102.899 13.6869 103.081 13.7234C103.855 13.8583 104.629 13.4774 104.985 12.7776C105.329 12.0651 105.169 11.2177 104.58 10.6892C82.4325 -9.08698 62.6454 4.6089 62.4478 4.74462C62.4113 4.76922 62.374 4.79382 62.3494 4.81842L52.5469 12.9625C52.4485 13.0363 52.3628 13.1347 52.289 13.2204L49.6975 16.4999L34.0727 28.255C33.6918 28.5375 33.4458 28.9794 33.3847 29.4468C33.3236 29.9261 33.4704 30.4054 33.7775 30.7735L43.2236 42.1723C43.5307 42.5532 43.9972 42.7746 44.4765 42.7992H44.5749C45.0296 42.7992 45.4715 42.6151 45.8032 42.2953L57.767 30.614L64.056 37.7138C64.5225 38.2423 65.2232 38.4137 65.8619 38.2296L106.163 86.8351C106.507 87.2524 107.011 87.4738 107.515 87.4738C107.907 87.4738 108.301 87.3389 108.633 87.0683L120.498 77.2293C120.854 76.9341 121.076 76.5049 121.125 76.0375C121.15 75.6193 121.015 75.1528 120.708 74.7965L120.709 74.7965ZM59.1695 26.9403C58.8497 26.584 58.3959 26.3626 57.9167 26.3507C57.4374 26.3389 56.9709 26.5102 56.6273 26.8546L44.7128 38.4866L37.6503 29.9744L51.985 19.1897C52.108 19.104 52.2183 18.9929 52.3048 18.8699L54.9209 15.5533L64.5264 7.56859C65.6563 6.78226 79.9172 -2.52818 97.4708 9.54588C90.4565 9.07935 79.0458 9.41101 71.0606 15.1469C70.6678 15.4294 70.41 15.8595 70.3481 16.3506C70.287 16.8299 70.4337 17.321 70.7408 17.6892L76.7108 24.8874L65.5452 34.1368L59.1695 26.9403ZM107.738 83.2851L68.6396 36.141L77.8033 28.55L116.889 75.694L107.738 83.2851Z" fill="#2A7542"/>
<path d="M94.533 98.6989C95.5034 98.6989 96.2897 97.9126 96.2897 96.9422V81.1586C96.2897 80.1882 95.5034 79.4019 94.533 79.4019H71.2802C70.3098 79.4019 69.5234 80.1882 69.5234 81.1586V96.9548C69.5234 97.9252 70.3098 98.7115 71.2802 98.7115H94.533V98.6989ZM92.789 95.1982H84.6694V82.9147H92.789V95.1982ZM73.0245 82.9027H81.1441V95.1862H73.0245V82.9027Z" fill="#2A7542"/>
<path d="M38.7741 91.6236C38.6146 91.4641 38.4178 91.3411 38.2091 91.2555C37.5585 90.973 36.7841 91.1325 36.2929 91.6236C36.1335 91.7958 36.0105 91.9917 35.9121 92.2013C35.8264 92.4099 35.7891 92.6432 35.7891 92.8646C35.7891 93.3439 35.9613 93.7739 36.2929 94.1175C36.4651 94.2769 36.6492 94.3999 36.8706 94.4856C37.0793 94.5959 37.3125 94.6205 37.5339 94.6205C37.7553 94.6205 37.9886 94.584 38.1973 94.4856C38.4059 94.3999 38.6027 94.2769 38.7622 94.1175C39.1058 93.7858 39.3017 93.3439 39.3017 92.8646C39.3017 92.6313 39.2525 92.4099 39.1668 92.2013C39.0685 91.9926 38.9454 91.7958 38.7741 91.6236Z" fill="#2A7542"/>
</g>
<defs>
<clipPath id="clip0_31_843">
<rect width="121.606" height="121.606" fill="white"/>
</clipPath>
</defs>
</svg>
